<svg xmlns="http://www.w3.org/2000/svg" width="16" height="16" viewBox="0 0 16 16" fill="none">
  <path d="M1.96094 2.53427V13.4655C1.96092 13.6276 2.00293 13.7869 2.08287 13.9279C2.1628 14.0689 2.27793 14.1868 2.41701 14.27C2.55609 14.3533 2.71438 14.399 2.87642 14.4028C3.03846 14.4067 3.19872 14.3684 3.34156 14.2918L13.5434 8.82614C13.6929 8.74602 13.8178 8.62686 13.9049 8.48136C13.992 8.33586 14.038 8.16946 14.038 7.99989C14.038 7.83032 13.992 7.66392 13.9049 7.51842C13.8178 7.37292 13.6929 7.25376 13.5434 7.17364L3.34156 1.70802C3.19872 1.6314 3.03846 1.59313 2.87642 1.59694C2.71438 1.60074 2.55609 1.6465 2.41701 1.72973C2.27793 1.81297 2.1628 1.93084 2.08287 2.07185C2.00293 2.21286 1.96092 2.37218 1.96094 2.53427Z" stroke="#26282C" stroke-width="1.5" stroke-linecap="round" stroke-linejoin="round"/>
</svg>