<svg xmlns="http://www.w3.org/2000/svg" width="24" height="24" viewBox="0 0 24 24" fill="none">
  <g clip-path="url(#clip0_1048_37266)">
    <path d="M10.5 12.5259C10.5005 12.7851 10.3981 13.0339 10.2153 13.2176C10.0325 13.4014 9.78421 13.5051 9.525 13.5059H1.725C1.59662 13.5056 1.46954 13.48 1.35104 13.4306C1.23254 13.3812 1.12494 13.309 1.03439 13.2179C0.943842 13.1269 0.872118 13.019 0.823321 12.9002C0.774524 12.7814 0.74961 12.6542 0.750005 12.5259V1.73586C0.749742 1.60743 0.774778 1.4802 0.823685 1.36144C0.872591 1.24269 0.944409 1.13472 1.03504 1.04372C1.12567 0.952721 1.23334 0.880462 1.35189 0.83107C1.47045 0.781678 1.59757 0.756122 1.726 0.755859L9.526 0.768859C9.78504 0.769918 10.0331 0.873699 10.2157 1.05743C10.3983 1.24116 10.5005 1.48982 10.5 1.74886V12.5259Z" stroke="black" stroke-width="1.2" stroke-linecap="round" stroke-linejoin="round"/>
    <path d="M23.2461 6.54388C23.2442 6.80071 23.1405 7.04629 22.9577 7.22667C22.7749 7.40706 22.5279 7.50748 22.2711 7.50589H14.4711C14.3439 7.50681 14.2178 7.48265 14.0999 7.43479C13.982 7.38693 13.8748 7.31631 13.7842 7.22697C13.6937 7.13762 13.6216 7.03131 13.5722 6.9141C13.5227 6.79689 13.4969 6.67109 13.4961 6.54388V1.73088C13.4977 1.47433 13.6011 1.22889 13.7835 1.04851C13.9659 0.86813 14.2125 0.767555 14.4691 0.768885L22.2691 0.755885C22.5262 0.754021 22.7735 0.854297 22.9567 1.03468C23.1399 1.21506 23.244 1.4608 23.2461 1.71788V6.54388Z" stroke="black" stroke-width="1.2" stroke-linecap="round" stroke-linejoin="round"/>
    <path d="M10.5 22.2909C10.4992 22.4184 10.4733 22.5445 10.4238 22.662C10.3743 22.7795 10.3021 22.8861 10.2114 22.9757C10.1206 23.0653 10.0132 23.1362 9.89505 23.1843C9.77694 23.2323 9.65051 23.2567 9.523 23.2559L1.723 23.2429C1.46618 23.2439 1.21944 23.143 1.03699 22.9622C0.854547 22.7815 0.751323 22.5357 0.75 22.2789V17.4699C0.750655 17.3425 0.776401 17.2166 0.825766 17.0992C0.875131 16.9818 0.947148 16.8753 1.0377 16.7858C1.12825 16.6963 1.23556 16.6255 1.35349 16.5774C1.47142 16.5294 1.59766 16.5051 1.725 16.5059H9.525C9.78209 16.5045 10.0292 16.6053 10.212 16.7861C10.3948 16.9668 10.4984 17.2128 10.5 17.4699V22.2909Z" stroke="black" stroke-width="1.2" stroke-linecap="round" stroke-linejoin="round"/>
    <path d="M14.4721 23.2559C14.3436 23.2556 14.2164 23.23 14.0978 23.1806C13.9791 23.1311 13.8714 23.0588 13.7808 22.9676C13.6901 22.8765 13.6183 22.7685 13.5695 22.6496C13.5206 22.5307 13.4957 22.4034 13.4961 22.2749V11.4869C13.4957 11.3584 13.5206 11.2312 13.5694 11.1124C13.6182 10.9936 13.6899 10.8855 13.7804 10.7944C13.871 10.7033 13.9786 10.631 14.0971 10.5815C14.2156 10.5319 14.3427 10.5063 14.4711 10.5059H22.2711C22.3995 10.5063 22.5266 10.5319 22.6451 10.5815C22.7636 10.631 22.8712 10.7033 22.9618 10.7944C23.0523 10.8855 23.124 10.9936 23.1728 11.1124C23.2216 11.2312 23.2465 11.3584 23.2461 11.4869V22.2619C23.2466 22.521 23.1444 22.7698 22.9618 22.9536C22.7793 23.1375 22.5312 23.2415 22.2721 23.2429L14.4721 23.2559Z" stroke="black" stroke-width="1.2" stroke-linecap="round" stroke-linejoin="round"/>
  </g>
  <defs>
    <clipPath id="clip0_1048_37266">
      <rect width="24" height="24" fill="white"/>
    </clipPath>
  </defs>
</svg>