<svg width="8" height="8" viewBox="0 0 8 8" fill="none" xmlns="http://www.w3.org/2000/svg">
<g id="Pencil" clip-path="url(#clip0_775_31825)">
<path id="Vector" d="M7.39667 0.60345C7.28312 0.490386 7.14829 0.40094 6.99998 0.340278C6.85167 0.279617 6.6928 0.248943 6.53257 0.250028C6.37233 0.251113 6.2139 0.283935 6.06642 0.346598C5.91894 0.409262 5.78534 0.500525 5.67333 0.615117L0.84 5.44845L0.25 7.75012L2.55167 7.15978L7.385 2.32645C7.49962 2.21449 7.59091 2.08093 7.6536 1.93348C7.71628 1.78602 7.74912 1.6276 7.7502 1.46738C7.75129 1.30716 7.7206 1.14832 7.65992 1.00003C7.59924 0.851737 7.50976 0.716947 7.39667 0.60345Z" stroke="#8F9092" stroke-width="0.6" stroke-linecap="round" stroke-linejoin="round"/>
</g>
<defs>
<clipPath id="clip0_775_31825">
<rect width="8" height="8" fill="white"/>
</clipPath>
</defs>
</svg>
