<svg width="16" height="17" viewBox="0 0 16 17" fill="none" xmlns="http://www.w3.org/2000/svg">
<g clip-path="url(#clip0_5026_53344)">
<path fill-rule="evenodd" clip-rule="evenodd" d="M1.94531 6.38282C1.94531 5.58783 2.1019 4.80063 2.40612 4.06616C2.71035 3.33169 3.15627 2.66433 3.7184 2.10219C4.28054 1.54005 4.9479 1.09414 5.68237 0.789913C6.41684 0.485685 7.20404 0.329102 7.99903 0.329102C8.79401 0.329102 9.58121 0.485685 10.3157 0.789913C11.0502 1.09414 11.7175 1.54005 12.2796 2.10219C12.8418 2.66433 13.2877 3.33169 13.5919 4.06616C13.8962 4.80063 14.0527 5.58783 14.0527 6.38282C14.0527 8.39425 13.1385 10.2605 12.0836 11.752C11.023 13.2502 9.78074 14.4285 9.03331 15.0765C8.74692 15.3269 8.37943 15.4649 7.99903 15.4649C7.61862 15.4649 7.25113 15.3269 6.96474 15.0765C6.21731 14.4285 4.97503 13.2502 3.91446 11.7508C2.8596 10.2605 1.94531 8.39425 1.94531 6.38282ZM10.0162 6.06053C10.0162 7.35196 9.29046 8.07882 7.99903 8.07882C6.7076 8.07882 5.98188 7.35196 5.98188 6.06053C5.98188 4.7691 6.7076 4.04339 7.99903 4.04339C9.29046 4.04339 10.0162 4.77024 10.0162 6.06053Z" fill="blue"/>
</g>
<defs>
<clipPath id="clip0_5026_53344">
<rect width="16" height="16" fill="white" transform="translate(0 0.0429688)"/>
</clipPath>
</defs>
</svg>
